#!OML:ASF I:\Actors\actors\Patient Classification 1\Patient 1\Session 1\Subject1.ASF
:FULLY-SPECIFIED
:DEGREES
1165
root -0.461532 17.5993 8.49958 23.7591 -14.6168 -9.27224
lowerback 2.18816 -0.193823 7.6922
upperback -1.8658 0.124007 4.45291
thorax -3.16462 -0.0681011 0.297607
lowerneck -6.39135 9.5053 16.966
upperneck 14.1562 14.1019 -19.6082
head 8.07438 6.40913 -7.94482
rclavicle 2.52457e-014 -9.38264e-014
rhumerus 45.6051 64.4676 -40.9883
rradius 35.9186
rwrist 15.7205
rhand 0.44185 -30.4237
rfingers 7.12502
rthumb 26.0135 -58.663
lclavicle 2.52457e-014 -9.38264e-014
lhumerus 15.0892 -62.2442 57.6346
lradius 48.5106
lwrist 17.5482
lhand -29.6906 -18.9149
lfingers 7.12502
lthumb -3.01871 11.0435
rfemur -23.6984 28.8221 14.9977
rtibia 2.98845
rfoot -6.03935 -17.6234
rtoes -4.37642
lfemur -172.527 80.4989 -178.934
ltibia -0.274629
lfoot 59.9334 -40.9844
ltoes 52.3313
1166
root -0.460906 17.5985 8.49805 23.789 -14.5976 -9.27392
lowerback 2.10772 -0.0240156 7.88627
upperback -1.93171 0.350372 4.32268
thorax -3.17518 0.0373543 0.0448078
lowerneck -5.43342 10.165 17.6391
upperneck 13.4991 14.9715 -19.4487
head 7.9054 6.93548 -7.88615
rclavicle 7.73272e-014 -5.24792e-014
rhumerus 44.391 64.1017 -42.0826
rradius 35.9062
rwrist 15.7505
rhand 0.573892 -30.3998
rfingers 7.12502
rthumb 26.1399 -58.6204
lclavicle 7.73272e-014 -5.24792e-014
lhumerus 15.8915 -62.7913 57.0247
lradius 48.5512
lwrist 17.7066
lhand -29.5829 -18.7381
lfingers 7.12502
lthumb -2.91466 11.2218
rfemur -23.7416 28.9598 14.9367
rtibia 2.95765
rfoot -6.04351 -17.8082
rtoes -4.35622
lfemur -172.179 80.4325 -178.575
ltibia -0.241091
lfoot 59.9892 -41.105
ltoes 52.2758
1167
root -0.46025 17.5971 8.49637 23.8036 -14.593 -9.27447
lowerback 2.03896 0.15526 8.0743
upperback -1.99325 0.589858 4.19246
thorax -3.18454 0.149394 -0.204742
lowerneck -4.56295 10.7722 18.135
upperneck 12.7849 15.7518 -19.1403
head 7.692 7.41171 -7.75674
rclavicle -1.2424e-014 5.96354e-014
rhumerus 43.2124 63.7569 -43.08
rradius 35.9102
rwrist 15.7561
rhand 0.513324 -30.5018
rfingers 7.12502
rthumb 26.082 -58.731
lclavicle -1.2424e-014 5.96354e-014
lhumerus 16.7009 -63.343 56.4525
lradius 48.5486
lwrist 17.8241
lhand -29.6031 -18.6168
lfingers 7.12502
lthumb -2.93416 11.3428
rfemur -23.7655 28.9835 14.9195
rtibia 2.96689
rfoot -6.10671 -17.8708
rtoes -4.0324
lfemur -172.169 80.3715 -178.56
ltibia -0.221778
lfoot 60.1375 -41.029
ltoes 52.3047
1168
root -0.458494 17.5968 8.49492 23.7733 -14.596 -9.26456
lowerback 2.0544 0.288993 8.23232
upperback -2.04153 0.776837 4.08278
thorax -3.22932 0.235236 -0.414043
lowerneck -3.84558 11.3907 18.4879
upperneck 12.0732 16.5318 -18.7334
head 7.48718 7.87389 -7.56723
rclavicle 1.37161e-014 7.95139e-016
rhumerus 42.2302 63.5001 -43.9204
rradius 35.8979
rwrist 15.8663
rhand 0.438976 -30.4811
rfingers 7.12502
rthumb 26.0108 -58.7207
lclavicle 1.37161e-014 7.95139e-016
lhumerus 17.41 -63.7576 55.9757
lradius 48.5197
lwrist 17.9869
lhand -29.5687 -18.7366
lfingers 7.12502
lthumb -2.90091 11.2235
rfemur -23.7221 28.8648 14.9636
rtibia 2.97361
rfoot -6.09471 -17.7709
rtoes -4.17166
lfemur -172.474 80.3278 -178.877
ltibia -0.210347
lfoot 60.2757 -40.925
ltoes 52.366
1169
root -0.456616 17.5978 8.4921 23.7328 -14.5776 -9.23421
lowerback 2.12116 0.393516 8.33218
upperback -2.1093 0.931188 3.99289
thorax -3.32519 0.304242 -0.569661
lowerneck -2.96334 11.9553 18.836
upperneck 11.1191 17.2405 -18.3402
head 7.16292 8.31007 -7.40777
rclavicle -2.80286e-014 -3.61788e-014
rhumerus 41.5308 63.3698 -44.4492
rradius 35.8863
rwrist 15.8551
rhand 0.460153 -30.4259
rfingers 7.12502
rthumb 26.031 -58.6626
lclavicle -2.80286e-014 -3.61788e-014
lhumerus 17.8592 -64.049 55.7856
lradius 48.4877
lwrist 18.0825
lhand -29.3471 -18.8783
lfingers 7.12502
lthumb -2.68693 11.0845
rfemur -23.6709 28.8186 14.9629
rtibia 2.9256
rfoot -6.03338 -17.7859
rtoes -4.43509
lfemur -172.432 80.2992 -178.881
ltibia -0.216828
lfoot 60.3357 -40.9992
ltoes 52.2775
1170
root -0.455555 17.5984 8.48859 23.72 -14.5401 -9.19471
lowerback 2.14881 0.505484 8.39221
upperback -2.20132 1.09178 3.91881
thorax -3.42367 0.376677 -0.687195
lowerneck -1.89125 12.4069 19.1553
upperneck 9.91796 17.8103 -17.9838
head 6.70372 8.68549 -7.30152
rclavicle -2.23633e-014 -7.4743e-014
rhumerus 40.7212 63.257 -45.0291
rradius 35.8728
rwrist 15.8698
rhand 0.507513 -30.449
rfingers 7.12502
rthumb 26.0764 -58.679
lclavicle -2.23633e-014 -7.4743e-014
lhumerus 18.1645 -64.2981 55.8065
lradius 48.4469
lwrist 18.0444
lhand -29.1262 -18.8857
lfingers 7.12502
lthumb -2.47357 11.0797
rfemur -23.6639 28.8462 14.9024
rtibia 2.8741
rfoot -6.01164 -17.898
rtoes -4.20385
lfemur -172.062 80.2755 -178.57
ltibia -0.247566
lfoot 60.3967 -41.0927
ltoes 52.1882
